<?xml version="1.0" standalone="no"?>
<!DOCTYPE svg PUBLIC "-//W3C//DTD SVG 20010904//EN"
 "http://www.w3.org/TR/2001/REC-SVG-20010904/DTD/svg10.dtd">
<svg version="1.0" xmlns="http://www.w3.org/2000/svg"
 width="150.000000pt" height="150.000000pt" viewBox="0 0 150.000000 150.000000"
 preserveAspectRatio="xMidYMid meet">
<metadata>
Created by potrace 1.14, written by Peter Selinger 2001-2017
</metadata>
<g transform="translate(0.000000,150.000000) scale(0.100000,-0.100000)"
fill="#000000" stroke="none">
<path d="M0 750 l0 -750 750 0 750 0 0 750 0 750 -750 0 -750 0 0 -750z m618
515 c-3 -3 -9 2 -12 12 -6 14 -5 15 5 6 7 -7 10 -15 7 -18z m102 11 c0 -8 6
-17 13 -20 6 -3 3 -4 -8 -1 -11 2 -37 5 -57 7 -56 3 -50 28 7 28 32 0 45 -4
45 -14z m90 -31 c0 -10 -11 -15 -35 -15 -26 0 -33 3 -29 15 4 9 19 15 35 15
19 0 29 -5 29 -15z m93 -34 c4 -16 1 -17 -29 -11 -18 4 -36 5 -39 2 -3 -4 -3
0 0 9 9 23 62 23 68 0z m87 -26 c0 -8 5 -15 11 -15 5 0 7 -6 3 -12 -6 -10 -4
-10 7 0 18 17 39 15 39 -3 0 -10 -10 -15 -30 -15 -20 0 -30 5 -30 15 0 10 -10
15 -30 15 -20 0 -30 5 -30 15 0 10 10 15 30 15 20 0 30 -5 30 -15z m90 -60 c0
-8 7 -15 15 -15 8 0 15 -7 15 -15 0 -8 -7 -15 -15 -15 -8 0 -15 7 -15 15 0 8
-9 15 -20 15 -13 0 -18 5 -14 15 4 8 12 15 20 15 8 0 14 -7 14 -15z m-205 -35
c1 -8 6 -14 13 -13 8 2 11 -40 11 -160 -1 -236 -2 -224 22 -230 29 -8 14 -27
-22 -27 -26 0 -29 3 -29 31 0 17 4 28 10 24 6 -3 10 -1 10 4 0 6 -4 11 -9 11
-5 0 -8 25 -8 55 0 30 3 52 8 49 5 -3 9 0 9 5 0 6 -4 11 -10 11 -5 0 -10 7
-10 16 0 8 5 12 10 9 6 -3 10 -1 10 4 0 6 -4 11 -9 11 -5 0 -8 25 -8 55 0 30
3 52 8 49 5 -3 9 0 9 5 0 6 -5 11 -12 11 -9 0 -9 3 0 12 7 7 12 17 12 23 0 5
-5 3 -10 -5 -8 -12 -10 -9 -10 13 0 23 -4 27 -30 27 -32 0 -35 -7 -31 -72 0
-15 -4 -30 -9 -33 -6 -3 -10 -12 -10 -18 0 -7 4 -6 10 3 8 13 10 13 10 -2 0
-9 -4 -20 -10 -23 -5 -3 -10 -12 -10 -18 0 -7 4 -6 10 3 8 13 10 13 10 -2 0
-9 -4 -20 -10 -23 -5 -3 -10 -12 -10 -18 0 -7 4 -6 10 3 8 13 10 13 10 -2 0
-9 -4 -20 -10 -23 -5 -3 -10 -12 -10 -18 0 -7 4 -6 10 3 8 13 10 13 10 -2 0
-9 -4 -20 -10 -23 -5 -3 -10 -12 -10 -18 0 -7 4 -6 10 3 8 13 10 13 10 -2 0
-9 -4 -20 -10 -23 -5 -3 -10 -12 -10 -18 0 -7 4 -6 10 3 8 13 10 13 10 -2 0
-9 -4 -20 -10 -23 -5 -3 -10 -12 -10 -18 0 -7 4 -6 10 3 6 10 9 -5 8 -48 -1
-34 -5 -62 -10 -62 -4 0 -8 -5 -8 -11 0 -5 4 -8 9 -5 5 3 9 -19 9 -49 0 -30
-4 -55 -9 -55 -5 0 -9 -5 -9 -11 0 -5 4 -8 9 -4 13 8 10 -38 -4 -47 -6 -5 -6
-8 2 -8 14 0 15 -77 2 -86 -5 -3 -9 -11 -9 -17 0 -7 4 -6 10 3 8 13 10 13 10
-2 0 -9 -4 -20 -10 -23 -5 -3 -10 -12 -10 -18 0 -7 4 -6 10 3 9 13 10 13 10 0
0 -9 -6 -22 -12 -29 -10 -11 -10 -13 0 -7 8 5 12 0 12 -12 0 -17 -7 -20 -59
-21 -49 0 -60 3 -63 17 -3 13 -12 16 -46 14 -32 -3 -42 0 -42 12 0 8 -7 19
-16 24 -15 8 -15 10 0 15 10 4 14 3 11 -2 -8 -14 6 -20 53 -22 22 -2 40 -8 39
-13 -1 -6 13 -12 31 -14 17 -2 32 -8 32 -15 0 -7 5 -6 14 3 10 10 16 40 17 93
1 48 6 77 13 77 8 0 8 2 0 8 -17 11 -18 656 -1 646 8 -5 7 -2 -2 9 -12 15 -11
17 4 17 11 0 15 5 11 16 -5 12 1 15 32 12 25 -2 37 -8 37 -18z m265 -40 c0
-20 5 -30 15 -30 19 0 21 -109 3 -129 -10 -11 -10 -13 0 -7 9 5 12 -10 12 -63
0 -56 -3 -71 -15 -71 -10 0 -15 -10 -15 -30 0 -20 -5 -30 -15 -30 -8 0 -15 -7
-15 -15 0 -10 -10 -15 -30 -15 -20 0 -30 5 -30 15 0 8 9 15 21 15 11 0 17 4
14 10 -3 6 1 7 10 4 9 -4 15 -3 14 2 -4 24 2 44 14 44 14 0 17 18 18 125 1
106 -3 145 -18 145 -7 0 -13 5 -13 11 0 5 6 7 13 3 6 -4 4 2 -6 13 -17 20 -14
33 10 33 8 0 13 -12 13 -30z m-602 -435 c0 -53 -4 -75 -11 -72 -7 2 -14 12
-15 22 -3 12 0 15 10 9 11 -6 11 -5 0 8 -8 9 -13 25 -12 35 4 36 0 43 -30 43
-20 0 -30 -5 -30 -15 0 -8 -4 -15 -8 -15 -5 0 -9 7 -9 15 0 8 4 15 9 15 4 0 8
7 8 15 0 11 12 15 44 15 l44 0 0 -75z m-113 30 c0 -5 -15 -11 -32 -13 -25 -3
-33 1 -33 13 0 12 8 16 33 13 17 -2 32 -7 32 -13z m-81 -26 c-2 -4 2 -10 8
-13 9 -4 8 -5 -2 -5 -48 3 -80 -2 -77 -13 2 -13 -4 -15 -58 -17 -24 -1 -35 -6
-35 -16 0 -8 -4 -15 -9 -15 -5 0 -4 14 2 31 11 28 15 30 52 27 31 -2 41 1 43
15 3 14 12 17 42 15 21 -1 37 -5 34 -9z m650 -1 c-5 -8 -3 -8 7 -2 21 13 71
13 59 0 -4 -6 -36 -12 -69 -14 -50 -2 -61 0 -61 13 0 11 10 15 36 15 24 0 33
-4 28 -12z m96 -3 c0 -8 -4 -15 -10 -15 -5 0 -7 7 -4 15 4 8 8 15 10 15 2 0 4
-7 4 -15z m80 0 c0 6 33 11 74 13 66 2 74 1 79 -17 4 -16 11 -19 46 -14 33 5
41 3 41 -11 0 -11 9 -16 30 -16 24 0 30 -4 30 -21 0 -16 -4 -19 -22 -14 -13 4
-28 13 -34 21 -6 7 -29 14 -52 15 -22 2 -39 7 -36 11 8 13 -17 19 -96 21 -54
2 -75 7 -78 17 -3 13 -2 12 7 0 6 -8 11 -10 11 -5z m-296 -27 c-5 -8 0 -7 11
2 16 13 18 13 13 0 -7 -21 -58 -26 -58 -6 0 9 9 16 21 16 13 0 18 -4 13 -12z
m-714 -29 c0 -5 -13 -15 -30 -20 -16 -6 -27 -15 -24 -20 3 -5 2 -9 -3 -8 -24
4 -43 -3 -43 -16 0 -8 -7 -15 -15 -15 -8 0 -15 7 -15 15 0 8 7 15 15 15 8 0
15 7 15 16 0 9 8 14 18 13 32 -3 42 1 42 16 0 8 9 15 20 15 11 0 20 -5 20 -11z
m350 -34 c0 -9 -10 -15 -26 -15 -14 0 -32 7 -40 15 -14 13 -11 15 25 15 30 0
41 -4 41 -15z m584 3 c-6 -10 -4 -10 7 0 8 7 42 12 89 12 l77 0 -5 -30 c-3
-23 -9 -30 -27 -30 -30 0 -56 -10 -51 -19 3 -4 -12 -8 -32 -9 -20 -2 -40 -9
-44 -15 -4 -7 -24 -14 -45 -15 -20 -2 -45 -9 -54 -17 -8 -8 -29 -15 -46 -15
-17 0 -33 -6 -36 -13 -3 -7 -23 -14 -46 -15 -32 -2 -41 1 -41 13 0 12 8 16 33
15 50 -3 57 -1 57 16 0 12 9 15 42 12 35 -2 43 1 46 15 3 14 12 18 35 17 50
-3 57 -1 57 16 0 11 9 15 33 14 49 -3 57 -1 57 14 0 10 -17 15 -60 18 -52 3
-60 1 -60 -14 0 -22 -48 -25 -69 -5 -11 10 -13 10 -7 0 4 -7 2 -13 -3 -13 -6
0 -11 -7 -11 -15 0 -11 -11 -15 -43 -14 -28 2 -44 7 -44 15 0 7 3 13 6 12 41
-4 81 4 81 17 0 11 11 15 40 15 27 0 43 5 46 15 4 8 10 15 16 15 5 0 6 -6 2
-12z m371 -16 c-3 -3 -11 0 -18 7 -9 10 -8 11 6 5 10 -3 15 -9 12 -12z m-1042
-13 c-5 -18 -11 -21 -46 -16 -33 5 -40 2 -44 -14 -4 -13 -14 -19 -34 -19 -19
0 -29 -5 -29 -15 0 -8 -7 -15 -15 -15 -8 0 -15 7 -15 15 0 8 5 15 11 15 5 0 7
5 3 12 -4 7 -3 8 4 4 7 -4 12 -3 12 3 0 5 15 11 33 13 20 2 31 8 29 16 -1 8 1
11 5 9 6 -4 82 6 90 12 0 0 -1 -9 -4 -20z m116 -94 l0 -74 -33 1 c-26 1 -31 4
-22 14 6 6 14 10 19 7 4 -2 7 8 7 22 0 18 4 24 13 19 10 -6 10 -4 0 7 -7 7
-13 22 -13 32 0 14 -5 18 -19 14 -14 -3 -17 0 -14 14 4 13 14 19 33 19 l29 0
0 -75z m931 39 c0 -20 -5 -24 -30 -24 -20 0 -30 -5 -30 -15 0 -10 -10 -15 -30
-15 -20 0 -30 -5 -30 -15 0 -18 -75 -22 -85 -4 -10 15 -4 18 43 20 27 2 42 8
42 16 0 8 12 13 30 13 21 0 30 5 30 16 0 10 6 14 15 10 13 -5 19 5 16 26 0 4
6 5 14 2 8 -4 15 -17 15 -30z m-570 -11 c0 -8 -13 -13 -30 -13 -20 0 -30 5
-30 15 0 8 9 15 20 15 11 0 20 6 20 13 0 16 20 -13 20 -30z m-854 2 c-3 -9 0
-15 10 -15 8 0 13 -4 9 -9 -3 -6 10 -13 28 -16 45 -9 45 -35 0 -35 -23 0 -33
5 -33 15 0 8 -7 15 -15 15 -8 0 -15 6 -15 14 0 18 10 46 17 46 3 0 3 -7 -1
-15z m404 -2 c0 -15 -2 -16 -10 -3 -6 10 -10 11 -10 3 0 -8 -14 -13 -36 -13
-20 0 -33 -4 -29 -10 4 -6 -1 -7 -11 -3 -11 4 -13 8 -6 11 7 2 12 10 12 18 0
10 13 14 45 14 36 0 45 -3 45 -17z m-155 -23 c-3 -5 -1 -10 6 -10 7 0 10 -2 7
-5 -3 -3 -13 -2 -22 1 -14 5 -15 9 -4 15 17 11 20 11 13 -1z m49 -19 c-2 -3
-12 3 -22 13 -16 17 -16 18 5 5 12 -7 20 -15 17 -18z m-141 -32 c29 -1 61 -1
72 -1 17 1 17 0 2 -4 -9 -3 -15 -10 -12 -15 4 -5 1 -9 -4 -9 -6 0 -11 6 -12
13 0 10 -2 10 -6 0 -3 -8 -22 -13 -46 -13 -35 0 -44 4 -53 25 -7 13 -9 27 -5
30 3 4 7 0 9 -9 3 -12 17 -16 55 -17z m1057 -15 c0 -10 -12 -14 -39 -14 -48 0
-64 25 -18 28 17 2 33 5 35 7 8 8 22 -6 22 -21z m-90 -25 c0 -18 -5 -20 -42
-17 -23 2 -43 9 -44 16 -1 7 0 8 3 2 3 -7 9 -7 16 -1 7 5 23 11 37 14 14 2 26
5 28 6 1 0 2 -8 2 -20z m-167 -46 c-7 -3 -13 -11 -13 -19 0 -21 -64 -18 -81 4
-13 15 -12 16 4 3 10 -8 17 -9 17 -3 0 6 15 12 33 14 22 2 31 8 29 18 -3 13
-1 13 10 1 10 -11 10 -14 1 -18z m77 12 c0 -10 -10 -15 -30 -15 -20 0 -30 5
-30 15 0 10 10 15 30 15 20 0 30 -5 30 -15z m-180 -60 c0 -10 -10 -15 -30 -15
-20 0 -30 5 -30 15 0 10 10 15 30 15 20 0 30 -5 30 -15z"/>
</g>
</svg>
