<?xml version="1.0" encoding="utf-8"?>
<!-- Generator: Adobe Illustrator 19.2.0, SVG Export Plug-In . SVG Version: 6.00 Build 0)  -->
<svg version="1.1" id="controlerplaystation" xmlns="http://www.w3.org/2000/svg" xmlns:xlink="http://www.w3.org/1999/xlink"
	 x="0px" y="0px" viewBox="0 0 216 176" enable-background="new 0 0 216 176" xml:space="preserve">
<g>
	<circle fill="none" cx="152" cy="32" r="4"/>
	<circle fill="none" cx="110" cy="106" r="2"/>
	<circle fill="none" cx="176" cy="44" r="4"/>
	<path fill="none" d="M110,92c-7.7189,0-14,6.2812-14,14s6.2811,14,14,14c7.7187,0,14-6.2812,14-14S117.7187,92,110,92z M110,116
		c-5.5157,0-10-4.4844-10-10s4.4843-10,10-10c5.5155,0,10,4.4844,10,10S115.5155,116,110,116z"/>
	<path fill="none" d="M56,44v-8h-4v8c0,2.2108-1.7893,4-4,4h-8v4h8c2.2107,0,4,1.7892,4,4v8h4v-8c0-2.2108,1.7891-4,4-4h8v-4h-8
		C57.7891,48,56,46.2108,56,44z"/>
	<path fill="none" d="M49.1951,87.5624c-5.8828-4.7968-12.0076-6.7812-18.2108-5.9024
		C19.6431,83.2824,10.7027,93.8148,8.096,97.1948C9.0743,133.4652,20.0831,160,30,160c10.3867,0,22-29.082,22-68
		c0-0.5148,0.116-0.9996,0.2927-1.4516C51.2463,89.4072,50.2115,88.392,49.1951,87.5624z"/>
	<circle fill="none" cx="128" cy="44" r="4"/>
	<circle fill="none" cx="152" cy="60" r="4"/>
	<path fill="none" d="M163.9607,81.4728c7.4024-6.3128,15.3048-8.9104,23.4768-7.7032c8.5388,1.254,15.6524,6.4764,20.5625,11.2812
		V64.0156C208,33.1288,182.8671,8,151.9763,8H64.0235C33.1327,8,8,33.1288,8,64.0156v21.3788
		c5.1407-4.8828,12.7107-10.332,21.8083-11.6484c1.3832-0.1992,2.762-0.3008,4.1292-0.3008c7.0468,0,13.8632,2.6564,20.3164,7.922
		c10.1876,8.3124,20.3164,28.2264,30.1172,47.4884C92.3007,144.4416,104.2851,168,110,168c5.7695,0,17.5779-23.9844,25.3943-39.8516
		C144.7107,109.2304,154.34,89.672,163.9607,81.4728z M76,56c0,2.2108-1.7893,4-4,4h-8v8c0,2.2108-1.7893,4-4,4H48
		c-2.2109,0-4-1.7892-4-4v-8h-8c-2.2109,0-4-1.7892-4-4V44c0-2.2108,1.7891-4,4-4h8v-8c0-2.2108,1.7891-4,4-4h12
		c2.2107,0,4,1.7892,4,4v8h8c2.2107,0,4,1.7892,4,4V56z M176,32c6.6171,0,12,5.3828,12,12s-5.3829,12-12,12
		c-6.6173,0-12-5.3828-12-12S169.3827,32,176,32z M152,20c6.6171,0,12,5.3828,12,12s-5.3829,12-12,12c-6.6173,0-12-5.3828-12-12
		S145.3827,20,152,20z M110,128c-12.1289,0-22-9.8712-22-22s9.8711-22,22-22c12.1287,0,22,9.8712,22,22S122.1287,128,110,128z
		 M128,56c-6.6173,0-12-5.3828-12-12s5.3827-12,12-12c6.6171,0,12,5.3828,12,12S134.6171,56,128,56z M152,72
		c-6.6173,0-12-5.3828-12-12s5.3827-12,12-12c6.6171,0,12,5.3828,12,12S158.6171,72,152,72z"/>
	<path fill="none" d="M186.2459,81.6796c-5.8828-0.8396-11.4608,1.0744-17.0976,5.8788c-1.6624,1.418-3.3788,3.3476-5.126,5.6392
		C164.2607,131.5044,175.7215,160,186,160c9.9227,0,20.9379-26.5668,21.9047-62.8696
		C205.4567,93.78,196.9943,83.242,186.2459,81.6796z"/>
	<path d="M128,32c-6.6173,0-12,5.3828-12,12s5.3827,12,12,12c6.6171,0,12-5.3828,12-12S134.6171,32,128,32z M128,48
		c-2.2073,0-4-1.7928-4-4s1.7927-4,4-4c2.2071,0,4,1.7928,4,4S130.2071,48,128,48z"/>
	<path d="M152,48c-6.6173,0-12,5.3828-12,12s5.3827,12,12,12c6.6171,0,12-5.3828,12-12S158.6171,48,152,48z M152,64
		c-2.2073,0-4-1.7928-4-4s1.7927-4,4-4c2.2071,0,4,1.7928,4,4S154.2071,64,152,64z"/>
	<path d="M152,44c6.6171,0,12-5.3828,12-12s-5.3829-12-12-12c-6.6173,0-12,5.3828-12,12S145.3827,44,152,44z M152,28
		c2.2071,0,4,1.7928,4,4s-1.7929,4-4,4c-2.2073,0-4-1.7928-4-4S149.7927,28,152,28z"/>
	<path d="M176,56c6.6171,0,12-5.3828,12-12s-5.3829-12-12-12c-6.6173,0-12,5.3828-12,12S169.3827,56,176,56z M176,40
		c2.2071,0,4,1.7928,4,4s-1.7929,4-4,4c-2.2073,0-4-1.7928-4-4S173.7927,40,176,40z"/>
	<path d="M151.9763,0H64.0235C28.7227,0,0,28.7188,0,64.0156V96c0,0.1156,0.044,0.22,0.0539,0.3336
		C0.8423,131.8488,11.2779,168,30,168c17.9683,0,28.3015-33.3,29.8023-67.3772c5.8772,9.1428,11.886,20.946,17.436,31.8576
		C90.9647,159.4648,99.8943,176,110,176c10.2263,0,19.0391-16.84,32.5703-44.3204c4.4284-8.9924,9.1632-18.594,13.8624-26.7612
		C158.5803,137.4432,168.788,168,186,168c18.7227,0,29.1587-36.1552,29.9463-71.6716C215.956,96.2164,216,96.114,216,96V64.0156
		C216,28.7188,187.2771,0,151.9763,0z M52,92c0,38.918-11.6133,68-22,68c-9.9169,0-20.9257-26.5348-21.904-62.8052
		c2.6067-3.38,11.5471-13.9124,22.8883-15.5348c6.2032-0.8788,12.328,1.1056,18.2108,5.9024
		c1.0164,0.8296,2.0512,1.8448,3.0976,2.986C52.116,91.0004,52,91.4852,52,92z M135.3943,128.1484
		C127.5779,144.0156,115.7695,168,110,168c-5.7149,0-17.6993-23.5584-25.6289-39.1444
		c-9.8008-19.262-19.9296-39.176-30.1172-47.4884c-6.4532-5.2656-13.2696-7.922-20.3164-7.922c-1.3672,0-2.746,0.1016-4.1292,0.3008
		C20.7107,75.0624,13.1407,80.5116,8,85.3944V64.0156C8,33.1288,33.1327,8,64.0235,8h87.9528C182.8671,8,208,33.1288,208,64.0156
		v21.0352c-4.9101-4.8048-12.0237-10.0272-20.5625-11.2812c-8.172-1.2072-16.0744,1.3904-23.4768,7.7032
		C154.34,89.672,144.7107,109.2304,135.3943,128.1484z M186,160c-10.2785,0-21.7393-28.4956-21.9777-66.8024
		c1.7472-2.2916,3.4636-4.2212,5.126-5.6392c5.6368-4.8044,11.2148-6.7184,17.0976-5.8788
		c10.7484,1.5624,19.2108,12.1004,21.6588,15.4508C206.9379,133.4332,195.9227,160,186,160z"/>
	<path d="M110,84c-12.1289,0-22,9.8712-22,22s9.8711,22,22,22c12.1287,0,22-9.8712,22-22S122.1287,84,110,84z M110,120
		c-7.7189,0-14-6.2812-14-14s6.2811-14,14-14c7.7187,0,14,6.2812,14,14S117.7187,120,110,120z"/>
	<path d="M110,96c-5.5157,0-10,4.4844-10,10s4.4843,10,10,10c5.5155,0,10-4.4844,10-10S115.5155,96,110,96z M110,108
		c-1.1017,0-2-0.8984-2-2s0.8983-2,2-2c1.1015,0,2,0.8984,2,2S111.1015,108,110,108z"/>
	<path d="M72,40h-8v-8c0-2.2108-1.7893-4-4-4H48c-2.2109,0-4,1.7892-4,4v8h-8c-2.2109,0-4,1.7892-4,4v12c0,2.2108,1.7891,4,4,4h8v8
		c0,2.2108,1.7891,4,4,4h12c2.2107,0,4-1.7892,4-4v-8h8c2.2107,0,4-1.7892,4-4V44C76,41.7892,74.2107,40,72,40z M68,52h-8
		c-2.2109,0-4,1.7892-4,4v8h-4v-8c0-2.2108-1.7893-4-4-4h-8v-4h8c2.2107,0,4-1.7892,4-4v-8h4v8c0,2.2108,1.7891,4,4,4h8V52z"/>
</g>
</svg>
